<svg width="48" height="48" viewBox="0 0 48 48" fill="none" xmlns="http://www.w3.org/2000/svg">
<path d="M15.6607 20.125C16.7745 20.125 17.6784 19.229 17.6784 18.125V10.325C17.6784 6.838 20.5404 4 24.0582 4C27.576 4 30.439 6.838 30.439 10.325V18.125C30.439 19.229 31.3419 20.125 32.4567 20.125C33.5704 20.125 34.4743 19.229 34.4743 18.125V10.325C34.4753 4.632 29.8024 0 24.0582 0C18.3159 0 13.6431 4.632 13.6431 10.325V18.125C13.6431 19.229 14.547 20.125 15.6607 20.125Z" fill="#3A3636"/>
<path d="M47.203 15.6311H36.4933V18.1251C36.4933 20.3311 34.6834 22.1251 32.458 22.1251C30.2325 22.1251 28.4227 20.3311 28.4227 18.1251V15.6311H19.6973V18.1251C19.6973 20.3311 17.8875 22.1251 15.662 22.1251C13.4366 22.1251 11.6267 20.3311 11.6267 18.1251V15.6311H0.796982C0.24011 15.6311 -0.103899 16.0661 0.0282568 16.6021L7.08802 45.0991C7.51374 46.7011 9.21462 48.0001 10.8852 48.0001H37.1147C38.7873 48.0001 40.4862 46.7011 40.9139 45.0991L47.9717 16.6021C48.1038 16.0651 47.7608 15.6311 47.203 15.6311Z" fill="#3A3636"/>
</svg>
