<svg width="22" height="6" viewBox="0 0 22 6" fill="none" xmlns="http://www.w3.org/2000/svg">
<g clip-path="url(#clip0_537_2)">
<path fill-rule="evenodd" clip-rule="evenodd" d="M2.75 0C1.2375 0 0 1.2375 0 2.75C0 4.2625 1.2375 5.5 2.75 5.5C4.2625 5.5 5.5 4.2625 5.5 2.75C5.5 1.2375 4.2625 0 2.75 0ZM19.25 0C17.7375 0 16.5 1.2375 16.5 2.75C16.5 4.2625 17.7375 5.5 19.25 5.5C20.7625 5.5 22 4.2625 22 2.75C22 1.2375 20.7625 0 19.25 0ZM11 0C9.4875 0 8.25 1.2375 8.25 2.75C8.25 4.2625 9.4875 5.5 11 5.5C12.5125 5.5 13.75 4.2625 13.75 2.75C13.75 1.2375 12.5125 0 11 0Z" fill="#3A3636"/>
</g>
<defs>
<clipPath id="clip0_537_2">
<rect width="22" height="5.5" fill="white"/>
</clipPath>
</defs>
</svg>
