<svg width="100" height="100" viewBox="0 0 100 100" fill="none" xmlns="http://www.w3.org/2000/svg">
<rect width="100" height="100" rx="50" fill="#23E0B3" fill-opacity="0.5"/>
<g clip-path="url(#clip0_403_10)">
<path d="M36.3154 80.0001H22.1824C21.1117 80.0001 20.2552 79.0402 20.041 78.0804C19.8269 76.8805 20.4693 75.6807 21.54 75.4408C23.6813 74.7209 24.9662 72.3212 24.9662 69.6816V67.282C24.9662 63.4425 26.251 59.8431 28.8206 57.2034C31.1761 54.8038 34.174 53.364 37.1719 53.364C43.596 53.604 48.5212 59.3631 48.7353 66.5621C48.7353 70.1615 47.6646 73.521 45.3091 76.1606C42.9536 78.5603 39.7416 80.0001 36.3154 80.0001Z" fill="#3A3636"/>
<path d="M78.4658 21.7831C76.3556 19.4056 72.9794 19.4056 70.8693 21.7831L43.4375 49.3624C48.0798 51.5022 51.456 55.7817 52.9331 61.25L78.6768 30.3422C80.5759 27.9647 80.3649 24.1607 78.4658 21.7831Z" fill="#3A3636"/>
</g>
<defs>
<clipPath id="clip0_403_10">
<rect width="60" height="60" fill="white" transform="translate(20 20)"/>
</clipPath>
</defs>
</svg>
