<svg width="100" height="100" viewBox="0 0 100 100" fill="none" xmlns="http://www.w3.org/2000/svg">
<rect width="100" height="100" rx="50" fill="#23E0B3" fill-opacity="0.5"/>
<path d="M77.2 46.4C74.55 46.4 72.4 48.55 72.4 51.2V59.2H27.6V51.2C27.6 48.55 25.451 46.4 22.8 46.4C20.149 46.4 18 48.55 18 51.2V70.4C18 71.28 18.7164 72 19.6 72H26C26.8836 72 27.51 71.2836 27.51 70.4L27.6 68.8H72.4V70.4C72.4 71.2836 73.1164 72 74 72H80.4C81.2836 72 82 71.2836 82 70.4V51.2C82 48.55 79.85 46.4 77.2 46.4ZM30.8 51.2V56H69.2V51.2C69.2 47.337 71.953 44.105 75.6 43.362V40C75.6 32.931 69.869 27.2 62.8 27.2H37.11C30.041 27.2 24.31 32.931 24.31 40L24.4 43.36C28.05 44.11 30.8 47.34 30.8 51.2Z" fill="#3A3636"/>
</svg>
