<svg width="100" height="100" viewBox="0 0 100 100" fill="none" xmlns="http://www.w3.org/2000/svg">
<rect width="100" height="100" rx="50" fill="#23E0B3" fill-opacity="0.5"/>
<path d="M66.0555 50.0038V46.8214H81.1187L72.3085 34.8873H57.0176V65.359H61.5806C62.0803 68.5494 64.652 70.9919 67.7382 70.9919C70.8243 70.9919 73.396 68.5573 73.8957 65.359H82.0004V50.0038H66.0555ZM67.7382 67.8095C65.9159 67.8095 64.4316 66.2024 64.4316 64.2292V64.2213V64.1895C64.4536 62.2402 65.9379 60.649 67.7382 60.649C69.5384 60.649 71.0227 62.2402 71.0447 64.1895V64.2292C71.0447 66.2024 69.5604 67.8095 67.7382 67.8095Z" fill="#3A3636"/>
<path d="M51.4182 29H20.8804C19.2932 29 18 30.4003 18 32.1188V62.2483C18 63.9668 19.2932 65.3671 20.8804 65.3671H27.5008C28.0005 68.5575 30.5722 71 33.6584 71C36.7445 71 39.3162 68.5654 39.8159 65.3671H54.0781V31.8801C54.0781 30.2968 52.8878 29 51.4182 29ZM33.6584 67.8096C31.8361 67.8096 30.3518 66.2025 30.3518 64.2294V64.2214V64.1896C30.3738 62.2404 31.8581 60.6492 33.6584 60.6492C35.4586 60.6492 36.9429 62.2404 36.9649 64.1896V64.2294C36.9649 66.2025 35.4806 67.8096 33.6584 67.8096Z" fill="#3A3636"/>
</svg>
