<svg width="100" height="100" viewBox="0 0 100 100" fill="none" xmlns="http://www.w3.org/2000/svg">
<rect width="100" height="100" rx="50" fill="#23E0B3" fill-opacity="0.5"/>
<g clip-path="url(#clip0_403_64)">
<path d="M78 46C78 30.536 65.464 18 50 18C34.536 18 22 30.536 22 46C22 52.712 24.368 58.872 28.308 63.692L18 74H26V82L37.144 70.856C40.996 72.852 45.36 74 50 74C54.64 74 59.004 72.852 62.856 70.856L74 82V74H82L71.692 63.692C75.632 58.872 78 52.712 78 46ZM50 62C41.164 62 34 54.836 34 46C34 37.164 41.164 30 50 30C58.836 30 66 37.164 66 46C66 54.836 58.836 62 50 62Z" fill="#3A3636"/>
</g>
<defs>
<clipPath id="clip0_403_64">
<rect width="64" height="64" fill="white" transform="translate(18 18)"/>
</clipPath>
</defs>
</svg>
